<?xml version="1.0" encoding="utf-8"?>
<!-- Generator: Adobe Illustrator 22.0.1, SVG Export Plug-In . SVG Version: 6.00 Build 0)  -->
<svg version="1.1" id="Layer_1" xmlns="http://www.w3.org/2000/svg" xmlns:xlink="http://www.w3.org/1999/xlink" x="0px" y="0px"
	 viewBox="0 0 462.2 601.7" style="enable-background:new 0 0 462.2 601.7;" xml:space="preserve">
<style type="text/css">
	.st0{fill:none;stroke:#D6A718;stroke-width:14;stroke-miterlimit:100;}
	.st1{fill:none;stroke:#8E2327;stroke-width:14;stroke-miterlimit:100;}
	.st2{fill:none;stroke:#999999;stroke-width:14;stroke-miterlimit:100;}
	.st3{fill:none;stroke:#007FFF;stroke-width:14;stroke-miterlimit:100;}
</style>
<g id="logo_1_">
	<g id="yellow_2_">
		<path class="st0" d="M52.1,216.8c53.3,106.7,53.3,213.3,0,320c80-93.3,186.7-146.7,320-160C238.8,363.5,132.1,310.2,52.1,216.8z"
			/>
	</g>
	<g id="blue_2_">
		<path class="st1" d="M52.1,165.8c53.3,106.7,53.3,213.3,0,320c80-93.3,186.7-146.7,320-160C238.8,312.5,132.1,259.2,52.1,165.8z"
			/>
	</g>
	<g id="grey_2_">
		<path class="st2" d="M52.1,115.8c53.3,106.7,53.3,213.3,0,320c80-93.3,186.7-146.7,320-160C238.8,262.5,132.1,209.2,52.1,115.8z"
			/>
	</g>
	<g id="red_2_">
		<path class="st3" d="M52.1,64.8c53.3,106.7,53.3,213.3,0,320c80-93.3,186.7-146.7,320-160C238.8,211.5,132.1,158.2,52.1,64.8z"/>
	</g>
</g>
</svg>
